<?xml version="1.0" encoding="utf-8"?>
<!-- Generator: Adobe Illustrator 24.0.1, SVG Export Plug-In . SVG Version: 6.00 Build 0)  -->
<svg version="1.1" id="_x32_" xmlns="http://www.w3.org/2000/svg" xmlns:xlink="http://www.w3.org/1999/xlink" x="0px" y="0px"
	 viewBox="0 0 800 800" style="enable-background:new 0 0 800 800;" xml:space="preserve">
<path d="M247,684h30v16.5h-48.1V584.6H247V684z M631.8,323.8L631.8,323.8c0-1.7,0-3.3,0-5c0-80.4-65.2-145.6-145.6-145.6
	c-75.3,0-137.3,57.2-144.8,130.5c-10.6-3.3-21.8-5-33.4-5c-62.4,0-112.9,50.6-112.9,112.9c0,62.4,50.6,112.9,112.9,112.9h323.8
	c55.4,0,100.4-44.9,100.4-100.4C732.2,368.7,687.3,323.8,631.8,323.8z M158,582.9c-8.7,0-15.4,2.5-20,7.5c-4.6,5-6.9,12-6.9,21v62.3
	c0,9.1,2.3,16.1,6.9,21c4.6,5,11.2,7.5,20,7.5c8.7,0,15.4-2.5,20-7.5c4.6-5,6.9-12,6.9-21v-16.4h-17.2V675c0,7.1-3,10.6-9.1,10.6
	c-6.1,0-9.1-3.5-9.1-10.6v-64.7c0-7.2,3-10.8,9.1-10.8c6.1,0,9.1,3.6,9.1,10.8v13.4h17.2v-12.3c0-9.1-2.3-16.1-6.9-21
	C173.4,585.4,166.7,582.9,158,582.9z M165.6,398.9v0.2c6.4-73,67.8-130.6,142.5-130.6c3.2,0,6.4,0.1,9.7,0.3
	c15.4-52.7,54.5-94.4,104.5-113.9c-22.2-34.4-60.9-57.2-104.9-57.2c-64.6,0-117.7,49-124.2,111.9c-9.1-2.8-18.7-4.3-28.6-4.3
	c-53.5,0-96.8,43.4-96.8,96.8c0,53.5,43.4,96.8,96.8,96.8H165.6z M648.8,635.6c-6-5.2-10.1-9.6-12.3-13.2c-2.3-3.6-3.4-7.6-3.4-11.8
	c0-7.4,3-11.1,9.1-11.1c3,0,5.2,0.9,6.8,2.7c1.5,1.8,2.3,4.7,2.3,8.7v6h17.2v-4.8c0-9.4-2.2-16.6-6.7-21.6S650.7,583,642,583
	c-8.8,0-15.6,2.5-20.2,7.5c-4.6,5-7,12.1-7,21.3c0,6.7,1.5,12.8,4.5,18.1c3,5.4,8.2,11.3,15.7,18c6,5.2,10,9.6,12.3,13.3
	c2.2,3.7,3.3,8,3.3,12.8c0,4.1-0.8,7-2.4,8.9c-1.6,1.8-3.9,2.7-7,2.7c-6.3,0-9.4-3.8-9.4-11.3v-7.9h-17.2v6.6
	c0,9.4,2.3,16.6,6.8,21.6s11.2,7.5,20,7.5c8.9,0,15.8-2.5,20.5-7.6s7-12.4,7-21.9c0-7.3-1.4-13.6-4.3-19
	C661.7,648.2,656.4,642.2,648.8,635.6z M365.1,590.6c4.7,5.1,7.1,12.2,7.1,21.5V673c0,9.2-2.4,16.4-7.1,21.5s-11.6,7.6-20.5,7.6
	c-8.9,0-15.8-2.5-20.5-7.6c-4.7-5-7.1-12.2-7.1-21.5v-61c0-9.2,2.4-16.4,7.1-21.5s11.6-7.6,20.5-7.6
	C353.6,582.9,360.4,585.5,365.1,590.6z M354,610.9c0-7.6-3.1-11.4-9.4-11.4s-9.4,3.8-9.4,11.4v63.3c0,7.6,3.1,11.4,9.4,11.4
	s9.4-3.8,9.4-11.4V610.9z M565.5,591.8c4.5,4.9,6.8,12,6.8,21.4v58.6c0,9.4-2.3,16.5-6.8,21.4c-4.6,4.9-11.3,7.3-20.4,7.3h-27.8
	V584.6h27.8C554.2,584.6,561,587,565.5,591.8z M554.1,612.4c0-4-0.8-6.8-2.4-8.6c-1.6-1.8-3.9-2.7-6.9-2.7h-9.3v82.8h9.3
	c3,0,5.3-0.8,6.9-2.6c1.6-1.8,2.4-4.6,2.4-8.6V612.4z M453.8,674.4h-0.1c0,4-0.8,6.8-2.4,8.6c-1.6,1.8-3.9,2.6-6.9,2.6
	s-5.3-0.9-6.9-2.6c-1.6-1.8-2.4-4.6-2.4-8.6v-89.8H417V673c0,9.4,2.3,16.6,7,21.6c4.6,5,11.4,7.5,20.2,7.5s15.6-2.5,20.2-7.5
	c4.6-5,7-12.2,7-21.6v-88.4h-17.6V674.4z"/>
</svg>
